<svg width="195" height="162" viewBox="0 0 195 162" fill="none" xmlns="http://www.w3.org/2000/svg">
<g clip-path="url(#clip0_305_5187)">
<path d="M52.3146 67.3895L51.3634 65.9627C51.2049 66.0419 51.0067 66.1212 50.7689 66.2005C50.6104 66.2797 50.4915 66.3986 50.4122 66.5572C50.2537 66.8743 50.0159 67.1121 49.6988 67.2706C49.3817 67.3499 49.0646 67.4688 48.7476 67.6273C48.4305 67.7066 48.1134 67.8255 47.7964 67.984C47.5585 68.1426 47.3604 68.3011 47.2018 68.4596C47.1226 68.5389 47.0829 68.7371 47.0829 69.0541C46.8451 69.0541 46.3695 69.0938 45.6561 69.173C45.022 69.173 43.3177 69.173 40.5433 69.173C40.3055 69.2523 40.0281 69.3316 39.711 69.4108C39.4732 69.4108 39.1957 69.3712 38.8787 69.2919C38.5616 69.2127 38.3238 68.8956 38.1653 68.3407C38.086 67.9444 38.0067 67.7066 37.9274 67.6273C37.8482 67.548 37.65 67.5877 37.3329 67.7462C37.2537 67.7462 37.214 67.6273 37.214 67.3895L36.9762 69.6487C37.1348 69.7279 37.2537 69.8072 37.3329 69.8865C37.4122 69.9657 37.4915 70.0846 37.5707 70.2432C37.5707 70.3224 37.4915 70.4017 37.3329 70.481C37.2537 70.5602 37.1744 70.6395 37.0951 70.7188C36.9366 70.5602 36.7384 70.4017 36.5006 70.2432C36.3421 70.0054 36.1043 69.9657 35.7872 70.1243C35.7872 70.2035 35.7476 70.3224 35.6683 70.481C35.6683 70.6395 35.6683 70.798 35.6683 70.9566C35.589 71.0358 35.5494 71.1547 35.5494 71.3133C35.5494 71.3926 35.5098 71.5115 35.4305 71.67C35.3512 71.67 35.3116 71.67 35.3116 71.67V71.0755C35.2323 71.1547 35.1531 71.1944 35.0738 71.1944C34.9945 71.1944 34.9549 71.1944 34.9549 71.1944C34.8756 71.67 34.6774 72.106 34.3604 72.5023C34.3604 72.5816 34.3207 72.7401 34.2415 72.9779C34.2415 73.2157 34.2415 73.4139 34.2415 73.5724C34.2415 74.1273 34.2415 74.7218 34.2415 75.356C34.2415 75.9108 34.2018 76.4657 34.1226 77.0206V77.6151C34.0433 77.9322 34.0037 78.2096 34.0037 78.4474C34.0829 78.606 34.1226 78.8438 34.1226 79.1608C34.2018 79.3987 34.2415 79.6761 34.2415 79.9932C34.2415 80.3102 34.2415 80.6273 34.2415 80.9444C34.1622 81.2615 34.1226 81.6182 34.1226 82.0145C34.1226 82.4108 34.1226 82.8072 34.1226 83.2035C34.1226 83.7584 34.1226 84.3133 34.1226 84.8682C34.1226 85.423 34.0829 85.9779 34.0037 86.5328C33.9244 87.0877 33.8848 87.6029 33.8848 88.0785C33.8848 88.5541 33.9244 89.0694 34.0037 89.6243C34.0829 89.9413 34.0433 90.298 33.8848 90.6944C33.8055 91.0115 33.7262 91.3285 33.647 91.6456C33.7262 91.9627 33.7659 92.2797 33.7659 92.5968C33.7659 92.8346 33.7659 93.1121 33.7659 93.4291L34.1226 95.5694C34.3604 95.8865 34.3604 96.2432 34.1226 96.6395C34.2811 96.9566 34.4 97.2737 34.4793 97.5907C34.5585 97.9078 34.5982 98.3041 34.5982 98.7797C34.5982 98.9383 34.6378 99.1365 34.7171 99.3743C34.7964 99.6121 34.8756 99.8102 34.9549 99.9688C35.272 100.444 35.3909 100.96 35.3116 101.515C35.3116 101.99 35.272 102.466 35.1927 102.941C35.1134 103.179 34.9549 103.338 34.7171 103.417C34.3207 103.813 33.8055 104.011 33.1714 104.011C32.8543 104.091 32.1409 104.249 31.0311 104.487C30.0006 104.725 29.3665 105.161 29.1287 105.795C28.8909 106.35 28.6531 106.667 28.4153 106.746C28.2567 106.746 27.9793 106.707 27.5829 106.627C27.0281 106.469 26.5128 106.31 26.0372 106.152C25.6409 105.914 25.2049 105.716 24.7293 105.557C24.65 105.557 24.4915 105.359 24.2537 104.963C23.6988 103.853 22.9457 103.1 21.9945 102.704C21.9153 102.704 21.7964 102.545 21.6378 102.228C21.5585 102.069 21.4 101.911 21.1622 101.752C20.9244 101.515 20.7262 101.277 20.5677 101.039C20.647 100.722 20.6866 100.405 20.6866 100.088C20.6866 99.6913 20.9244 99.3743 21.4 99.1365C21.5585 98.9779 21.5982 98.7797 21.5189 98.5419C21.4396 98.2249 21.2415 97.9474 20.9244 97.7096C20.6073 97.4718 20.3299 97.1944 20.0921 96.8773C20.0128 96.8773 19.9732 96.798 19.9732 96.6395C20.211 96.5602 20.6073 96.5206 21.1622 96.5206L21.5189 94.1426C21.4396 93.7462 21.4 93.3499 21.4 92.9535C21.4 92.4779 21.4 92.0023 21.4 91.5267C21.4 90.6547 21.4 89.7828 21.4 88.9108C21.4793 87.9596 21.4793 87.048 21.4 86.1761C21.4 85.7797 21.4 85.423 21.4 85.106C21.4793 84.7096 21.5585 84.3133 21.6378 83.9169C21.6378 83.7584 21.5982 83.5999 21.5189 83.4413C21.4396 83.2035 21.4 83.0054 21.4 82.8468V81.42C21.4 81.0237 21.4 80.6669 21.4 80.3499C21.4793 80.0328 21.5189 79.7157 21.5189 79.3987C21.4396 78.6852 21.5982 77.8926 21.9945 77.0206C22.1531 76.4657 22.1927 76.109 22.1134 75.9505C21.9549 75.3956 21.8756 74.8804 21.8756 74.4047C21.8756 73.9291 21.8756 73.4535 21.8756 72.9779C21.8756 72.5816 21.836 72.1852 21.7567 71.7889C21.7567 71.3926 21.7964 70.9962 21.8756 70.5999C21.8756 70.3621 21.8756 70.1243 21.8756 69.8865C21.9549 69.5694 22.0342 69.2523 22.1134 68.9352C22.3512 68.3011 22.3909 67.7462 22.2323 67.2706C22.0738 66.6365 22.1134 66.1212 22.3512 65.7249C22.589 65.17 22.6287 64.734 22.4701 64.4169C22.3116 64.1791 22.272 63.9413 22.3512 63.7035C22.4305 63.4657 22.5098 63.2676 22.589 63.109C23.0646 62.5541 23.3024 61.9993 23.3024 61.4444C23.3024 60.8102 23.2232 60.1761 23.0646 59.5419C23.0646 59.2249 23.2232 58.9474 23.5403 58.7096C23.6195 58.5511 23.6592 58.1944 23.6592 57.6395C23.7384 57.2432 23.8177 56.8468 23.897 56.4505C23.9762 56.0541 24.0159 55.6578 24.0159 55.2615C24.0951 54.8651 24.0951 54.5084 24.0159 54.1913C24.0159 53.795 24.0555 53.4383 24.1348 53.1212L24.4915 51.0999C24.4915 50.7035 24.3726 50.4261 24.1348 50.2676C23.897 50.2676 23.7781 50.1883 23.7781 50.0297C23.6988 49.4749 23.5403 48.9596 23.3024 48.484C23.1439 47.9291 22.9854 47.4139 22.8268 46.9383C22.7476 46.3834 22.7079 45.8682 22.7079 45.3926C22.7872 44.8377 22.7476 44.3224 22.589 43.8468L22.7079 43.3712C23.3421 42.5785 23.5799 41.548 23.4214 40.2797C23.5799 39.6456 23.461 39.0511 23.0646 38.4962C22.7476 37.9413 22.272 37.6243 21.6378 37.545C21.0037 37.3865 20.6866 36.9901 20.6866 36.356C20.6866 36.1974 20.6073 36.0389 20.4488 35.8804C20.0524 35.2462 19.6561 34.5724 19.2598 33.859C18.9427 33.1456 18.6256 32.4718 18.3085 31.8377C18.2293 31.6791 18.1896 31.5206 18.1896 31.3621C18.2689 31.1243 18.2293 30.9261 18.0707 30.7676C17.8329 30.3712 17.7537 29.9352 17.8329 29.4596C17.9122 28.984 17.9915 28.548 18.0707 28.1517C18.15 27.8346 18.1896 27.5572 18.1896 27.3194C18.1896 27.0816 18.1104 26.8041 17.9518 26.4871C17.9518 26.4871 18.0311 26.3285 18.1896 26.0115C18.8238 26.17 19.4183 26.2096 19.9732 26.1304C20.5281 25.9718 21.0433 25.8133 21.5189 25.6548C23.1043 25.2584 24.6896 24.9017 26.275 24.5846C27.8604 24.1883 29.5646 23.9108 31.3878 23.7523L34.5982 23.3956C36.5006 23.3163 38.3634 23.2767 40.1866 23.2767C42.089 23.1974 43.9518 23.1578 45.775 23.1578C46.647 23.1578 47.5585 23.2371 48.5098 23.3956C49.5403 23.4749 50.5707 23.5938 51.6012 23.7523C53.3451 24.0694 55.089 24.6639 56.8329 25.5358C57.15 25.6944 57.3878 25.7737 57.5464 25.7737C57.9427 25.7737 58.2598 25.8529 58.4976 26.0115C58.8146 26.0907 59.0921 26.2096 59.3299 26.3682C59.7262 26.6852 60.1622 26.9627 60.6378 27.2005C61.1927 27.4383 61.6683 27.7157 62.0646 28.0328C62.461 28.3499 62.8573 28.6669 63.2537 28.984C63.7293 29.2218 64.1256 29.5389 64.4427 29.9352C64.7598 30.0938 65.0372 30.2919 65.275 30.5297C65.5921 30.6883 65.8695 30.8865 66.1073 31.1243L66.9396 32.0755C67.1774 32.3133 67.4153 32.5511 67.6531 32.7889C67.9701 32.9474 68.2079 33.106 68.3665 33.2645C68.525 33.423 68.6439 33.6212 68.7232 33.859C68.8817 34.0968 69.0403 34.3346 69.1988 34.5724C69.5951 34.2554 69.9518 34.4139 70.2689 35.048C70.586 35.6029 70.8634 36.1578 71.1012 36.7127C71.4976 37.1883 71.7354 37.6639 71.8146 38.1395C71.9732 38.6151 72.1317 39.1304 72.2903 39.6852C72.4488 40.1608 72.5677 40.6365 72.647 41.1121C72.8848 41.7462 72.8848 42.3804 72.647 43.0145C72.647 44.2828 72.647 45.5511 72.647 46.8194C72.647 48.0084 72.4092 49.1974 71.9335 50.3865C71.775 50.9413 71.6561 51.5358 71.5768 52.17C71.4976 52.7249 71.2598 53.2401 70.8634 53.7157C70.7049 53.9535 70.5067 54.231 70.2689 54.548C70.1104 54.7858 69.9122 54.984 69.6744 55.1426C69.5159 55.4596 69.3177 55.7371 69.0799 55.9749C68.9214 56.2127 68.8421 56.5297 68.8421 56.9261C68.7628 57.8773 68.089 58.3926 66.8207 58.4718C66.5037 58.4718 66.1866 58.67 65.8695 59.0663C65.6317 59.4627 65.5921 59.859 65.7506 60.2554C65.8299 60.8102 65.6317 61.2066 65.1561 61.4444C64.9183 61.6029 64.6409 61.8407 64.3238 62.1578C64.086 62.3956 63.8085 62.5145 63.4915 62.5145C62.5403 62.5145 61.9457 62.8712 61.7079 63.5846C61.5494 63.981 61.0342 64.1791 60.1622 64.1791C59.6073 64.1791 59.0921 64.2584 58.6165 64.4169C58.2201 64.4962 57.8238 64.7737 57.4275 65.2493C57.3482 65.3285 57.2689 65.4078 57.1896 65.4871C57.1104 65.5663 56.9915 65.6456 56.8329 65.7249C56.2781 66.0419 55.8817 66.0419 55.6439 65.7249C55.5646 65.5663 55.4457 65.4871 55.2872 65.4871C55.1287 65.4871 54.9701 65.4474 54.8116 65.3682C54.7323 65.8438 54.5738 66.2797 54.336 66.6761C53.7811 66.5176 53.3848 66.4779 53.147 66.5572C52.9092 66.5572 52.6317 66.8346 52.3146 67.3895ZM53.2659 58.5907C53.4244 58.1944 53.3055 57.798 52.9092 57.4017C52.7506 57.8773 52.5524 58.3133 52.3146 58.7096C52.5524 58.6304 52.7506 58.5907 52.9092 58.5907C53.0677 58.5907 53.1866 58.5907 53.2659 58.5907ZM53.2659 58.5907C53.3451 58.9078 53.5829 58.9474 53.9793 58.7096C53.7415 58.3926 53.5037 58.3529 53.2659 58.5907ZM49.1043 60.731C49.3421 60.4932 49.5799 60.295 49.8177 60.1365C50.1348 59.9779 50.3329 59.7797 50.4122 59.5419C50.8085 58.9078 51.1653 58.4718 51.4823 58.234C51.7994 57.9169 51.9976 57.6791 52.0768 57.5206C52.1561 57.2828 52.3939 57.1243 52.7903 57.045C53.7415 56.6487 54.2171 56.0541 54.2171 55.2615C54.2171 55.0237 54.2964 54.8651 54.4549 54.7858C54.6134 54.6273 54.7323 54.4688 54.8116 54.3102C54.8909 54.231 54.9701 54.1517 55.0494 54.0724C55.1287 53.9932 55.2079 53.9139 55.2872 53.8346C56.0006 52.9627 56.6348 52.1304 57.1896 51.3377C57.7445 50.4657 58.2994 49.5541 58.8543 48.6029C59.2506 47.5724 59.647 46.5816 60.0433 45.6304C60.5189 44.5999 60.8756 43.5694 61.1134 42.5389C61.3512 41.4291 61.3512 40.359 61.1134 39.3285C60.8756 38.298 60.2415 37.3468 59.211 36.4749C58.6561 35.92 58.022 35.484 57.3085 35.1669C56.6744 34.8499 56.0006 34.5328 55.2872 34.2157C54.5738 33.7401 53.5433 33.5023 52.1957 33.5023C51.6409 33.423 51.1256 33.3834 50.65 33.3834C50.1744 33.3834 49.6988 33.3438 49.2232 33.2645C48.5098 33.1852 47.8756 33.1456 47.3207 33.1456C46.8451 33.0663 46.3695 33.1456 45.8939 33.3834C45.8146 33.4627 45.6561 33.5023 45.4183 33.5023C45.2598 33.423 45.1012 33.3834 44.9427 33.3834C44.4671 33.3834 44.0311 33.3834 43.6348 33.3834C43.3177 33.3834 43.0006 33.423 42.6835 33.5023C40.464 33.7401 38.9976 34.0968 38.2842 34.5724C38.1256 34.6517 37.9671 34.7706 37.8085 34.9291C37.7293 35.0877 37.6896 35.3651 37.6896 35.7615C37.6896 36.2371 37.65 36.7127 37.5707 37.1883C37.5707 37.5846 37.5707 38.0206 37.5707 38.4962C37.5707 39.0511 37.5311 39.606 37.4518 40.1608C37.4518 40.6365 37.4122 41.1517 37.3329 41.7066C37.2537 42.4993 37.1744 43.2919 37.0951 44.0846C37.0951 44.8773 37.0159 45.67 36.8573 46.4627C36.7781 47.4932 36.5799 48.5236 36.2628 49.5541C36.025 50.5054 35.8665 51.4962 35.7872 52.5267C35.7872 53.4779 35.6287 54.2706 35.3116 54.9047V55.856C35.3909 56.0938 35.3909 56.3316 35.3116 56.5694C35.3116 56.7279 35.3512 56.9261 35.4305 57.1639C35.4305 57.481 35.4305 57.798 35.4305 58.1151C35.4305 58.3529 35.4701 58.6304 35.5494 58.9474C35.5494 59.5023 35.4701 59.8987 35.3116 60.1365C35.3116 60.2157 35.272 60.3346 35.1927 60.4932C35.1927 60.5724 35.1927 60.6913 35.1927 60.8499C35.1134 61.1669 35.0342 61.5236 34.9549 61.92C34.9549 62.3163 34.9945 62.7127 35.0738 63.109C35.1531 63.2676 35.1927 63.545 35.1927 63.9413C35.1134 64.4962 35.2323 65.0115 35.5494 65.4871C35.8665 65.8834 36.2628 65.923 36.7384 65.606C36.897 65.4474 37.0159 65.3285 37.0951 65.2493C37.2537 65.0907 37.4122 65.0115 37.5707 65.0115C38.0464 64.8529 38.4031 64.4962 38.6409 63.9413C38.8787 63.545 39.1165 63.545 39.3543 63.9413C39.8299 64.4169 40.147 64.7737 40.3055 65.0115C40.464 64.8529 40.8207 64.734 41.3756 64.6547C41.9305 64.5755 43.5555 64.4962 46.2506 64.4169C46.4092 64.4962 46.5677 64.6151 46.7262 64.7737C46.8848 64.8529 47.0433 64.8926 47.2018 64.8926C47.5982 64.8133 47.9945 64.734 48.3909 64.6547C48.7872 64.5755 49.1439 64.6547 49.461 64.8926C49.6195 64.8926 49.6988 64.8529 49.6988 64.7737C50.3329 64.5358 51.0067 64.2188 51.7201 63.8224L52.0768 63.3468C51.2842 63.2676 50.4915 63.3072 49.6988 63.4657C48.9854 63.545 48.2323 63.6639 47.4396 63.8224C47.4396 63.4261 47.4396 63.109 47.4396 62.8712C47.5189 62.6334 47.5982 62.3956 47.6774 62.1578C48.0738 62.0785 48.3909 62.1578 48.6287 62.3956C48.9457 62.6334 49.2628 62.673 49.5799 62.5145C49.897 62.356 50.214 62.1974 50.5311 62.0389C50.9275 61.8011 51.1653 61.5237 51.2445 61.2066C50.8482 61.1273 50.4518 61.048 50.0555 60.9688C49.7384 60.8895 49.4214 60.8102 49.1043 60.731ZM23.6592 68.8163C23.5799 68.9749 23.461 69.1334 23.3024 69.2919C23.1439 69.4505 23.025 69.609 22.9457 69.7676L22.589 72.2645C22.589 72.8194 22.7476 73.0968 23.0646 73.0968C23.6195 73.1761 23.897 72.9383 23.897 72.3834L24.2537 70.8377C24.1744 70.5999 24.0951 70.3224 24.0159 70.0054C23.9366 69.609 23.8177 69.2127 23.6592 68.8163ZM22.8268 80.8255C22.7476 81.0633 22.6287 81.2615 22.4701 81.42C22.3909 81.5785 22.3512 81.7371 22.3512 81.8956L22.7079 84.0358C23.6592 83.0846 23.6988 82.0145 22.8268 80.8255ZM34.7171 69.7676C34.8756 70.0054 34.9549 70.2035 34.9549 70.3621C35.0342 70.5206 35.1531 70.5602 35.3116 70.481C35.4701 70.4017 35.5494 70.0846 35.5494 69.5297C35.3909 69.3712 35.1134 69.4505 34.7171 69.7676ZM23.6592 64.4169C23.8177 64.6547 23.7384 64.9718 23.4214 65.3682C23.1835 65.6852 23.3421 65.9627 23.897 66.2005C24.3726 65.4871 24.2933 64.8926 23.6592 64.4169ZM40.4244 63.3468C40.5829 63.2676 41.0982 63.1883 41.9701 63.109C42.9214 63.0297 43.8726 62.9505 44.8238 62.8712C45.8543 62.7127 46.4488 62.5938 46.6073 62.5145C46.6073 62.9108 46.2903 63.1487 45.6561 63.2279C45.022 63.3072 43.397 63.4261 40.7811 63.5846C40.7018 63.5846 40.5829 63.5054 40.4244 63.3468Z" fill="#014130"/>
<path d="M68.0093 122.679C68.4849 122.521 68.7624 122.402 68.8417 122.323C68.9209 122.164 68.9606 121.926 68.9606 121.609C68.5642 121.371 68.5642 121.173 68.9606 121.015C69.1191 120.539 69.238 120.064 69.3173 119.588C69.3965 119.112 69.4758 118.597 69.5551 118.042C69.6343 117.725 69.6343 117.408 69.5551 117.091C69.5551 116.695 69.5947 116.338 69.674 116.021C69.674 115.466 69.7136 114.911 69.7929 114.356C69.9514 113.801 70.0307 113.326 70.0307 112.929C70.1099 112.533 70.1892 112.216 70.2685 111.978C70.427 111.74 70.5063 111.463 70.5063 111.146C70.5856 110.432 70.5856 109.679 70.5063 108.887C70.5063 108.094 70.5063 107.341 70.5063 106.628C70.5063 106.152 70.5063 105.716 70.5063 105.32C70.5063 104.923 70.5459 104.567 70.6252 104.25C70.6252 103.932 70.6252 103.695 70.6252 103.536C70.7045 103.378 70.7441 103.259 70.7441 103.179C71.0612 102.625 71.2593 101.99 71.3386 101.277V100.801C71.2593 100.405 71.2197 100.048 71.2197 99.7313C71.2197 99.3349 71.2593 98.9782 71.3386 98.6611C71.3386 98.5819 71.299 98.5422 71.2197 98.5422C70.9026 98.3044 70.7045 97.9874 70.6252 97.591C70.6252 97.1947 70.6252 96.838 70.6252 96.5209V94.2617C70.6252 94.0239 70.6648 93.8654 70.7441 93.7861C70.8234 93.6276 70.9026 93.4294 70.9819 93.1916C71.0612 92.9538 70.9423 92.716 70.6252 92.4782V92.3593C70.7837 91.963 70.7837 91.6063 70.6252 91.2892C70.5459 90.9721 70.4667 90.6947 70.3874 90.4569C70.3081 90.1398 70.2685 89.8227 70.2685 89.5056C70.2685 89.1093 70.1892 88.7526 70.0307 88.4355C69.8721 88.1184 69.7929 87.8806 69.7929 87.7221C69.8721 87.4843 69.8325 87.2465 69.674 87.0087C69.674 86.6916 69.6343 86.4934 69.5551 86.4142C69.5551 85.7008 69.3965 85.6611 69.0795 86.2953V84.5117C69.0795 83.8776 68.8417 83.3227 68.366 82.8471C68.2868 82.7678 68.2471 82.6489 68.2471 82.4904C68.1679 81.777 68.1282 81.1032 68.1282 80.4691C68.1282 79.8349 68.1282 79.1611 68.1282 78.4477V78.3288C68.2075 77.7739 68.0886 77.4965 67.7715 77.4965C67.6923 77.0209 67.6526 76.5453 67.6526 76.0697C67.6526 75.5941 67.613 75.1185 67.5337 74.6428C67.4545 74.1672 67.3752 73.6916 67.2959 73.216C67.2959 72.7404 67.2563 72.3441 67.177 72.027C67.177 71.8684 67.177 71.7099 67.177 71.5514C67.2563 71.3136 67.2959 71.155 67.2959 71.0758C67.2959 70.9172 67.2563 70.7587 67.177 70.6002C67.177 70.4416 67.177 70.3227 67.177 70.2434L67.0581 69.6489C66.9788 69.2526 66.8996 68.8563 66.8203 68.4599C66.8203 67.9843 66.741 67.588 66.5825 67.2709C66.5825 66.7953 66.4636 66.5575 66.2258 66.5575C65.7502 66.3197 65.2746 66.0819 64.799 65.8441C64.4026 65.527 63.927 65.2099 63.3721 64.8928L62.6587 64.4172C62.5002 64.1002 62.302 63.7831 62.0642 63.466C61.8264 63.0697 61.5093 62.7526 61.113 62.5148C61.0337 62.5148 60.9148 62.4355 60.7563 62.277C60.677 62.1977 60.6374 61.9995 60.6374 61.6825C60.6374 61.4447 60.4392 61.1276 60.0429 60.7313C59.9636 60.7313 59.924 60.652 59.924 60.4934C59.924 60.4934 59.9636 60.4934 60.0429 60.4934C60.1221 60.4142 60.2014 60.3745 60.2807 60.3745C60.4392 60.3745 60.5581 60.4142 60.6374 60.4934C60.7959 60.4934 60.9148 60.4934 60.9941 60.4934C61.3112 60.4934 61.549 60.4934 61.7075 60.4934C61.866 60.4934 62.0246 60.4934 62.1831 60.4934H62.8965C63.0551 60.4934 63.1343 60.4934 63.1343 60.4934C63.3721 60.3349 63.5703 60.216 63.7288 60.1367C63.9667 59.9782 64.1648 59.8593 64.3234 59.78C64.5612 59.6215 64.6404 59.463 64.5612 59.3044C64.5612 59.1459 64.5612 59.027 64.5612 58.9477C64.4819 58.5514 64.4026 58.2343 64.3234 57.9965C64.2441 57.7587 64.2441 57.5605 64.3234 57.402C64.4026 56.7678 64.363 56.3319 64.2045 56.0941C64.0459 55.777 63.8478 55.5392 63.6099 55.3806C63.6099 55.3806 63.5703 55.3806 63.491 55.3806C63.4118 55.3014 63.3721 55.2221 63.3721 55.1428H63.2532C63.6496 54.9843 63.7685 54.7069 63.6099 54.3105H63.7288C63.8874 54.3898 64.0063 54.4294 64.0856 54.4294C64.1648 54.4294 64.2441 54.5087 64.3234 54.6672C64.7197 54.8258 64.9575 54.7465 65.0368 54.4294C65.5124 54.1123 65.9484 53.8349 66.3447 53.5971C66.8203 53.28 67.3356 53.0819 67.8904 53.0026L68.1282 52.7648C68.2868 53.0026 68.6435 53.0819 69.1984 53.0026C69.3569 53.0026 69.4758 53.1215 69.5551 53.3593C69.6343 53.5178 69.7929 53.6764 70.0307 53.8349C70.1099 53.8349 70.1496 53.8745 70.1496 53.9538C70.1496 54.0331 70.1892 54.0727 70.2685 54.0727C70.5856 54.3105 70.7837 54.3898 70.863 54.3105C71.0215 54.3105 71.1404 54.2313 71.2197 54.0727C71.299 53.9142 71.3782 53.7953 71.4575 53.716C71.5368 53.7953 71.5764 53.9934 71.5764 54.3105C71.6557 54.6276 71.8142 54.8258 72.052 54.905C72.2106 54.7465 72.3295 54.588 72.4087 54.4294C72.5673 54.2709 72.7258 54.1916 72.8843 54.1916C73.2014 54.1124 73.4788 54.1124 73.7167 54.1916C74.0337 54.1916 74.3508 54.0727 74.6679 53.8349C74.6679 53.8349 74.7075 53.8349 74.7868 53.8349C74.866 53.8349 74.9057 53.8745 74.9057 53.9538C75.302 54.0331 75.6587 54.1916 75.9758 54.4294C76.3721 54.6672 76.7288 54.905 77.0459 55.1428C77.5215 55.3806 77.9575 55.6184 78.3538 55.8563C78.8295 56.0941 79.3447 56.2922 79.8996 56.4508H80.0185C80.177 56.9264 80.3752 57.1245 80.613 57.0453C80.8508 56.966 81.1282 56.9264 81.4453 56.9264H82.2776C82.3569 57.0849 82.4362 57.1245 82.5154 57.0453C82.674 56.8867 82.7929 56.7678 82.8721 56.6886C83.0307 56.4508 83.1892 56.3319 83.3478 56.3319C83.5063 56.3319 83.7045 56.3319 83.9423 56.3319C84.1801 56.4111 84.2197 56.6093 84.0612 56.9264C83.8234 57.2434 83.7441 57.4416 83.8234 57.5209C83.9026 57.6002 83.9819 57.7191 84.0612 57.8776C84.1404 57.8776 84.1801 57.9172 84.1801 57.9965C83.863 58.0758 83.5459 58.1947 83.2288 58.3532C82.991 58.5117 82.7136 58.6703 82.3965 58.8288V58.9477C82.7929 59.027 83.1892 59.2252 83.5856 59.5422C83.9819 59.78 84.3386 59.8989 84.6557 59.8989C85.052 59.8197 85.4087 59.8593 85.7258 60.0178C86.1221 60.1764 86.5581 60.2556 87.0337 60.2556C87.2715 60.4142 87.5886 60.3349 87.9849 60.0178C88.3813 59.9386 88.6984 59.9782 88.9362 60.1367C89.174 60.216 89.4118 60.2953 89.6496 60.3745C89.8874 60.4538 90.0856 60.4934 90.2441 60.4934C90.4819 60.4934 90.6801 60.5331 90.8386 60.6124C90.9971 60.6916 91.1557 60.7313 91.3142 60.7313C91.552 60.7313 91.7106 60.8105 91.7898 60.9691C91.8691 60.9691 91.988 61.0087 92.1465 61.088C92.3051 61.088 92.424 61.0483 92.5032 60.9691C93.2959 60.9691 94.049 61.088 94.7624 61.3258C95.4758 61.405 96.0703 61.6825 96.5459 62.1581C96.7045 62.2374 96.9819 62.277 97.3782 62.277C97.7746 62.3563 98.052 62.3959 98.2106 62.3959C98.3691 62.3166 98.5673 62.3166 98.8051 62.3959C98.9636 62.3959 99.1221 62.4355 99.2807 62.5148C99.4392 62.5941 99.5978 62.6733 99.7563 62.7526C99.8356 62.7526 99.8752 62.7922 99.8752 62.8715C99.9545 62.9508 100.034 62.9508 100.113 62.8715C100.509 62.713 100.787 62.7526 100.945 62.9904C101.183 63.1489 101.381 63.3075 101.54 63.466C101.698 63.5453 101.817 63.5849 101.897 63.5849C102.055 63.5849 102.174 63.6245 102.253 63.7038C102.57 63.7038 102.887 63.7434 103.204 63.8227C103.601 63.8227 103.958 63.8227 104.275 63.8227C104.433 63.902 104.592 63.9416 104.75 63.9416C104.988 63.9416 105.147 64.0209 105.226 64.1794L107.366 65.4874C107.604 65.4874 107.881 65.6459 108.198 65.963C108.833 66.2008 109.427 66.4386 109.982 66.6764C110.616 66.9142 111.211 67.2313 111.765 67.6276C112.4 67.9447 112.954 68.341 113.43 68.8166C113.906 69.2922 114.421 69.7678 114.976 70.2434C115.372 70.5605 115.768 70.9172 116.165 71.3136C116.64 71.7099 117.037 72.1063 117.354 72.5026C117.75 73.0575 118.107 73.6124 118.424 74.1672C118.741 74.6428 119.058 75.1185 119.375 75.5941C119.692 75.9111 119.97 76.3075 120.208 76.7831C120.445 77.2587 120.683 77.7739 120.921 78.3288C121.079 78.5666 121.198 78.8837 121.278 79.28C121.436 79.5971 121.595 79.9538 121.753 80.3502C121.912 80.6672 122.031 80.9843 122.11 81.3014C122.268 81.6184 122.387 81.9752 122.467 82.3715C122.625 83.0056 122.704 83.7191 122.704 84.5117C123.022 85.5422 123.299 86.5331 123.537 87.4843C123.616 87.6428 123.616 87.8806 123.537 88.1977C123.537 88.4355 123.537 88.6337 123.537 88.7922C123.537 89.2678 123.537 89.7434 123.537 90.2191C123.537 90.6947 123.537 91.1703 123.537 91.6459V92.2404C123.695 92.4782 123.695 92.7953 123.537 93.1916C123.458 93.5087 123.418 93.7861 123.418 94.0239C122.942 94.0239 122.625 94.2221 122.467 94.6184C122.308 95.0148 122.15 95.4508 121.991 95.9264C121.595 96.7191 121.317 97.6306 121.159 98.6611L120.564 99.6123C120.326 100.246 120.049 100.881 119.732 101.515C119.494 102.07 119.296 102.664 119.137 103.298C118.9 103.615 118.701 104.012 118.543 104.487C118.464 104.884 118.345 105.28 118.186 105.676C118.186 105.914 118.147 106.112 118.067 106.271C118.067 106.429 118.028 106.628 117.948 106.865C117.948 106.945 117.909 107.024 117.829 107.103C117.988 107.5 117.988 107.817 117.829 108.054C117.75 108.213 117.631 108.371 117.473 108.53C117.393 108.847 117.275 109.125 117.116 109.362C117.037 109.6 117.037 109.838 117.116 110.076C117.195 110.234 117.195 110.432 117.116 110.67C117.037 110.829 116.958 110.987 116.878 111.146C116.799 111.384 116.68 111.621 116.522 111.859C116.363 112.018 116.204 112.216 116.046 112.454C115.967 112.692 115.848 112.929 115.689 113.167C115.61 113.326 115.491 113.484 115.333 113.643C115.174 114.118 114.936 114.554 114.619 114.951C114.381 115.268 114.143 115.585 113.906 115.902C113.747 116.219 113.549 116.536 113.311 116.853C113.073 117.17 112.875 117.527 112.717 117.923C112.4 118.24 112.083 118.637 111.765 119.112C111.528 119.509 111.211 119.786 110.814 119.945C110.735 120.024 110.656 120.143 110.576 120.301C110.497 120.381 110.418 120.5 110.339 120.658C110.339 120.658 110.299 120.658 110.22 120.658C110.22 120.579 110.22 120.5 110.22 120.42L110.339 119.945C110.339 119.945 110.299 119.945 110.22 119.945C110.22 119.945 110.22 119.905 110.22 119.826C109.903 120.064 109.625 120.301 109.387 120.539C109.229 120.698 108.991 120.856 108.674 121.015V120.896C108.753 120.817 108.833 120.737 108.912 120.658C108.991 120.5 109.11 120.381 109.268 120.301C109.506 120.064 109.784 119.826 110.101 119.588C110.418 119.35 110.656 119.073 110.814 118.756C111.052 118.518 111.25 118.32 111.409 118.161C111.567 117.923 111.686 117.567 111.765 117.091C111.765 116.932 111.845 116.814 112.003 116.734C112.162 116.576 112.281 116.417 112.36 116.259C112.598 116.021 112.598 115.783 112.36 115.545C112.36 115.307 112.439 115.149 112.598 115.07C112.836 114.99 112.875 114.832 112.717 114.594C112.637 114.673 112.518 114.753 112.36 114.832C112.281 114.911 112.201 115.109 112.122 115.426C112.122 115.585 112.003 115.743 111.765 115.902C111.686 115.981 111.528 116.1 111.29 116.259C111.131 116.338 110.973 116.496 110.814 116.734C110.814 116.734 110.735 116.814 110.576 116.972C109.942 117.448 109.546 118.24 109.387 119.35C109.387 119.588 109.348 119.786 109.268 119.945C109.031 120.024 108.793 120.064 108.555 120.064C108.159 120.46 107.762 120.698 107.366 120.777C107.128 121.015 107.128 121.332 107.366 121.728C107.049 121.57 106.811 121.649 106.653 121.966C106.494 122.283 106.256 122.521 105.939 122.679C105.781 122.759 105.701 122.838 105.701 122.917C105.86 123.234 105.82 123.472 105.583 123.631C105.424 123.789 105.305 123.987 105.226 124.225C105.067 124.542 104.909 124.78 104.75 124.939C104.671 124.939 104.631 124.978 104.631 125.057C104.631 125.137 104.631 125.176 104.631 125.176C104.314 125.493 103.958 125.89 103.561 126.365C103.165 126.762 102.768 127.079 102.372 127.317L102.253 127.436C102.095 127.753 101.936 127.951 101.778 128.03C101.698 128.109 101.579 128.189 101.421 128.268C101.262 128.347 101.104 128.585 100.945 128.981C100.945 128.981 100.945 129.021 100.945 129.1C100.945 129.1 100.906 129.1 100.826 129.1C100.509 129.259 100.153 129.457 99.7563 129.695C99.3599 129.853 98.9636 130.091 98.5673 130.408C98.4087 130.487 98.2502 130.606 98.0917 130.765C98.0917 130.527 98.1313 130.329 98.2106 130.17C97.8935 130.012 97.5764 130.25 97.2593 130.884C97.4971 130.884 97.6557 130.923 97.7349 131.003C97.5764 131.161 97.4179 131.32 97.2593 131.478C97.1801 131.637 97.1801 131.914 97.2593 132.311H97.8539C97.7746 132.469 97.6557 132.588 97.4971 132.667C97.3386 132.746 97.2197 132.826 97.1404 132.905C97.0612 132.746 96.9819 132.628 96.9026 132.548C96.8234 132.469 96.7441 132.39 96.6648 132.311C96.6648 132.469 96.6252 132.588 96.5459 132.667C96.5459 132.746 96.5459 132.865 96.5459 133.024C96.5459 133.896 96.2288 134.332 95.5947 134.332C95.2776 134.332 94.9606 134.411 94.6435 134.57C94.4057 134.649 94.1679 134.768 93.9301 134.926C93.7715 135.006 93.613 135.243 93.4545 135.64C92.9788 135.719 92.5429 135.917 92.1465 136.234C91.7502 136.472 91.3539 136.75 90.9575 137.067C90.4819 137.384 90.1252 137.78 89.8874 138.256C89.7289 138.652 89.491 138.85 89.174 138.85C88.7776 138.533 88.5002 138.612 88.3417 139.088C88.1831 139.484 87.866 139.603 87.3904 139.445C87.3112 139.365 87.113 139.405 86.7959 139.564C86.5581 139.722 86.3599 139.96 86.2014 140.277L85.488 140.753C85.1709 141.07 84.8538 141.347 84.5368 141.585C84.2197 141.743 83.863 141.942 83.4667 142.179C83.2288 142.417 82.9514 142.536 82.6343 142.536C82.3965 142.536 82.1984 142.536 82.0398 142.536C81.3264 142.536 80.9697 142.774 80.9697 143.25C80.9697 143.567 81.049 143.804 81.2075 143.963C81.6831 144.201 81.6831 144.597 81.2075 145.152C81.1282 145.152 81.0093 145.152 80.8508 145.152C80.7715 145.231 80.7319 145.271 80.7319 145.271C80.8112 145.667 80.7715 145.984 80.613 146.222C80.4545 146.46 80.2959 146.737 80.1374 147.054L79.3051 146.817C79.3051 146.896 79.2654 146.975 79.1862 147.054C79.1862 147.213 79.1862 147.371 79.1862 147.53C79.1069 147.134 78.9087 146.936 78.5917 146.936C78.2746 146.936 78.0764 146.896 77.9971 146.817C77.8386 146.817 77.6801 146.658 77.5215 146.341C77.4423 146.103 77.2441 145.984 76.927 145.984C76.7685 146.064 76.5703 146.103 76.3325 146.103C76.174 146.103 76.0154 146.182 75.8569 146.341C75.2228 146.341 74.866 146.064 74.7868 145.509C74.7075 145.35 74.4697 145.271 74.0734 145.271C73.677 145.35 73.3996 145.469 73.241 145.628C73.1618 145.707 73.0825 145.786 73.0032 145.865C73.0032 145.945 73.0032 145.984 73.0032 145.984L72.5276 145.509C72.3691 145.35 72.2898 145.231 72.2898 145.152C72.2898 145.231 72.2502 145.271 72.1709 145.271C72.1709 145.35 72.1709 145.429 72.1709 145.509C72.1709 145.667 72.1709 145.826 72.1709 145.984C72.1709 146.143 72.1709 146.301 72.1709 146.46V147.292C72.1709 147.371 72.1709 147.451 72.1709 147.53C72.2502 147.689 72.2898 147.847 72.2898 148.006H72.1709C71.8538 147.768 71.5764 147.49 71.3386 147.173C71.1801 146.936 70.9423 146.658 70.6252 146.341C70.5459 146.103 70.4667 145.984 70.3874 145.984C70.0703 145.905 69.9514 145.746 70.0307 145.509C70.1099 145.35 70.1496 145.231 70.1496 145.152C70.1496 144.993 70.2288 144.875 70.3874 144.795C70.5459 144.795 70.6648 144.756 70.7441 144.676C70.7441 144.597 70.7045 144.518 70.6252 144.439C70.6252 144.359 70.6252 144.28 70.6252 144.201C70.4667 144.359 70.3081 144.439 70.1496 144.439C70.0703 144.439 69.9514 144.439 69.7929 144.439C69.6343 144.439 69.5551 144.399 69.5551 144.32C69.4758 144.161 69.3173 143.963 69.0795 143.725C68.9209 143.487 68.6831 143.289 68.366 143.131V143.012C68.366 142.536 68.1282 142.298 67.6526 142.298C67.4148 142.378 67.1374 142.259 66.8203 141.942C66.5825 141.545 66.5032 141.189 66.5825 140.871V140.753C66.3447 140.515 66.1465 140.198 65.988 139.801C65.9087 139.405 65.6709 139.167 65.2746 139.088C65.116 139.009 64.9575 138.85 64.799 138.612C64.6404 138.295 64.4819 138.097 64.3234 138.018C64.0856 137.701 63.8478 137.384 63.6099 137.067C63.4514 136.75 63.3325 136.353 63.2532 135.878C63.174 135.481 63.0154 135.085 62.7776 134.689C62.5398 134.292 62.3417 133.896 62.1831 133.5L62.0642 133.024C62.2228 132.311 62.2228 131.835 62.0642 131.597C61.9057 131.359 61.5093 131.082 60.8752 130.765C60.7167 130.686 60.3996 130.408 59.924 129.932C59.924 129.932 59.8843 129.932 59.8051 129.932C59.8051 129.853 59.8051 129.774 59.8051 129.695C59.8051 129.615 59.8447 129.576 59.924 129.576C60.0032 129.576 60.0429 129.576 60.0429 129.576C60.2014 129.496 60.3203 129.457 60.3996 129.457C60.5581 129.457 60.6374 129.457 60.6374 129.457C60.7167 129.378 60.7959 129.378 60.8752 129.457C61.0337 129.536 61.2319 129.615 61.4697 129.695C61.7868 129.774 62.0246 129.853 62.1831 129.932L62.302 130.17C62.4606 130.012 62.6587 130.051 62.8965 130.289C63.2136 130.448 63.491 130.567 63.7288 130.646C63.8081 130.725 63.927 130.686 64.0856 130.527C64.0856 130.368 64.0459 130.21 63.9667 130.051C63.9667 129.893 63.9667 129.774 63.9667 129.695H63.7288C63.5703 129.378 63.4514 129.021 63.3721 128.625C63.3721 128.228 63.1343 127.99 62.6587 127.911C62.6587 127.673 62.6984 127.515 62.7776 127.436C62.8569 127.356 62.8965 127.317 62.8965 127.317C62.5002 127 62.0642 126.722 61.5886 126.484C61.113 126.167 60.7167 125.89 60.3996 125.652V125.533C61.0337 125.692 61.6282 125.771 62.1831 125.771C62.5002 125.771 62.6587 125.731 62.6587 125.652C62.8173 125.573 62.9758 125.533 63.1343 125.533C63.2929 125.454 63.491 125.493 63.7288 125.652C63.8874 125.731 64.2441 125.771 64.799 125.771C64.8782 125.771 64.9575 125.771 65.0368 125.771C65.1953 125.692 65.3538 125.692 65.5124 125.771C66.1465 125.771 66.6618 125.493 67.0581 124.939C67.4545 124.304 67.7715 123.551 68.0093 122.679ZM90.363 125.89C90.4423 125.89 90.4819 125.89 90.4819 125.89C90.5612 125.89 90.6404 125.89 90.7197 125.89H90.363ZM90.363 125.89C90.2837 125.969 90.2441 126.088 90.2441 126.246C90.2441 126.326 90.2045 126.445 90.1252 126.603H90.2441C90.3234 126.524 90.4026 126.445 90.4819 126.365C90.6404 126.286 90.7593 126.128 90.8386 125.89H90.7197C91.0368 125.811 91.3142 125.652 91.552 125.414C91.7898 125.097 91.988 124.78 92.1465 124.463C91.8295 124.384 91.552 124.344 91.3142 124.344C91.1557 124.265 90.9179 124.225 90.6008 124.225C90.7593 123.829 90.9179 123.631 91.0764 123.631C91.3142 123.631 91.4728 123.75 91.552 123.987C91.552 123.987 91.552 124.027 91.552 124.106C91.6313 124.106 91.7106 124.106 91.7898 124.106C91.7106 124.106 91.8295 124.027 92.1465 123.868C92.0673 123.868 91.988 123.829 91.9087 123.75C91.9087 123.591 91.8691 123.512 91.7898 123.512H91.4331C91.5917 123.353 91.7106 123.155 91.7898 122.917C91.9484 122.6 92.1862 122.6 92.5032 122.917C92.6618 122.442 92.741 122.164 92.741 122.085C92.8203 121.847 92.9789 121.689 93.2167 121.609C93.4545 121.451 93.5734 121.213 93.5734 120.896C93.5734 120.896 93.613 120.896 93.6923 120.896C93.7715 120.896 93.8508 120.856 93.9301 120.777C94.1679 120.777 94.366 120.698 94.5246 120.539C94.6039 120.222 94.6831 119.905 94.7624 119.588C94.9209 119.271 95.1984 119.073 95.5947 118.993C95.674 118.993 95.7136 119.033 95.7136 119.112C95.7929 119.112 95.8721 119.112 95.9514 119.112L96.0703 118.399C95.991 118.003 95.991 117.765 96.0703 117.686C96.2288 117.606 96.427 117.527 96.6648 117.448C96.8234 117.448 96.9423 117.368 97.0215 117.21C97.1801 116.576 97.299 116.219 97.3782 116.14C97.7746 115.823 98.052 115.506 98.2106 115.189C98.3691 114.792 98.5276 114.436 98.6862 114.118L99.0429 113.762C99.4392 113.128 99.7563 112.612 99.9941 112.216C100.311 111.82 100.549 111.344 100.708 110.789C100.866 110.234 101.025 109.719 101.183 109.243C101.342 108.689 101.5 107.896 101.659 106.865C101.976 104.804 102.65 104.408 103.68 105.676H104.037C104.829 106.311 105.226 106.073 105.226 104.963C105.543 104.091 105.82 103.179 106.058 102.228C106.296 101.198 106.494 100.088 106.653 98.8989C106.732 98.6611 106.811 98.3441 106.89 97.9477C107.049 97.4721 107.485 96.7587 108.198 95.8075C108.198 95.0941 108.357 94.7374 108.674 94.7374C108.674 94.0239 108.714 93.3898 108.793 92.8349C108.872 92.28 109.11 91.6459 109.506 90.9325C109.744 90.2191 109.982 89.5849 110.22 89.03C110.458 88.4752 110.656 87.9599 110.814 87.4843C110.814 87.3258 110.735 87.1672 110.576 87.0087C110.497 86.7709 110.458 86.5727 110.458 86.4142C110.22 86.5727 109.863 86.6916 109.387 86.7709C108.912 86.8502 108.674 86.9691 108.674 87.1276C108.436 87.6825 107.961 87.9995 107.247 88.0788C106.534 88.1581 105.939 88.1977 105.464 88.1977C105.464 87.4843 105.583 86.8105 105.82 86.1764C106.137 85.5422 106.811 85.0666 107.842 84.7495C107.921 84.7495 107.961 84.7495 107.961 84.7495C108.04 84.6703 108.079 84.6306 108.079 84.6306H108.198C108.198 84.7099 108.159 84.8288 108.079 84.9874C108 85.0666 107.921 85.1855 107.842 85.3441C107.683 85.1063 107.683 84.9081 107.842 84.7495C107.921 84.6703 108 84.6306 108.079 84.6306L109.506 84.2739C109.427 83.9569 109.387 83.6794 109.387 83.4416C109.387 83.1245 109.11 82.8075 108.555 82.4904C108.476 82.4904 108.436 82.4904 108.436 82.4904C108.436 82.4111 108.436 82.3715 108.436 82.3715C108.119 82.213 107.881 81.9752 107.723 81.6581L106.415 82.0148C106.573 81.4599 106.653 80.905 106.653 80.3502C106.732 79.7953 106.573 79.2404 106.177 78.6855C105.701 78.8441 105.464 78.9233 105.464 78.9233C105.384 78.7648 105.305 78.6459 105.226 78.5666C105.147 78.4873 105.067 78.3684 104.988 78.2099L104.869 78.091C104.711 77.7739 104.592 77.5361 104.512 77.3776C104.433 77.1398 104.314 76.9416 104.156 76.7831C103.442 75.8319 102.61 75.0788 101.659 74.5239C101.183 74.4447 100.747 74.3258 100.351 74.1672C100.034 73.9294 99.6374 73.7709 99.1618 73.6916C98.1313 73.216 96.863 72.78 95.3569 72.3837C94.4849 72.2252 93.5734 72.0666 92.6221 71.9081C91.7502 71.7495 90.8782 71.591 90.0063 71.4325H89.7685C88.738 71.4325 87.866 71.2739 87.1526 70.9569L84.5368 70.6002C84.4575 70.5209 84.2197 70.5209 83.8234 70.6002C83.5063 70.6002 83.3081 70.6398 83.2288 70.7191C82.7532 70.7983 82.238 70.7587 81.6831 70.6002C81.366 70.6002 81.1282 70.7191 80.9697 70.9569C80.8904 71.2739 80.8112 71.591 80.7319 71.9081C80.7319 72.1459 80.7319 72.4233 80.7319 72.7404C80.6526 72.9782 80.613 73.2556 80.613 73.5727C80.8508 73.5727 81.049 73.5331 81.2075 73.4538C81.1282 73.6916 81.049 73.9294 80.9697 74.1672C80.9697 74.405 80.9697 74.6032 80.9697 74.7617C80.8904 74.6825 80.8508 74.6428 80.8508 74.6428C80.8508 74.5636 80.8112 74.4843 80.7319 74.405H80.613C80.4545 74.7221 80.3752 74.9995 80.3752 75.2373V75.9508C80.2167 76.5849 80.2563 76.9416 80.4941 77.0209C80.3356 77.655 80.2563 78.2099 80.2563 78.6855C80.2563 78.7648 80.2167 78.8441 80.1374 78.9233C80.1374 79.0026 80.177 79.1215 80.2563 79.28C80.2563 79.7556 80.2167 80.0727 80.1374 80.2313V80.8258C80.2167 81.1428 80.2167 81.4995 80.1374 81.8959C80.0581 82.2922 80.0581 82.6886 80.1374 83.0849C80.1374 83.3227 80.1374 83.5605 80.1374 83.7983C80.2167 83.9569 80.2959 84.155 80.3752 84.3928H80.613C80.6923 84.0758 80.7319 83.6398 80.7319 83.0849C80.7319 83.1642 80.7319 83.2038 80.7319 83.2038C80.8112 83.2038 80.8508 83.2038 80.8508 83.2038V83.3227C80.8508 83.3227 80.8508 83.3624 80.8508 83.4416V83.2038C80.7715 82.8075 80.7715 82.4904 80.8508 82.2526C81.0093 82.0148 81.1679 81.777 81.3264 81.5392C81.4057 81.5392 81.4453 81.5788 81.4453 81.6581C81.2868 82.1337 81.1282 82.4508 80.9697 82.6093C80.9697 82.7678 80.9301 83.0056 80.8508 83.3227C81.0093 83.4813 81.1679 83.6002 81.3264 83.6794C81.4849 83.7587 81.6039 83.8776 81.6831 84.0361C81.6831 84.1947 81.6435 84.3928 81.5642 84.6306C81.4849 84.7892 81.4453 84.9874 81.4453 85.2252C81.366 85.78 81.2868 86.2953 81.2075 86.7709C81.2075 87.2465 81.2075 87.6825 81.2075 88.0788C81.1282 88.3166 81.049 88.5544 80.9697 88.7922C80.9697 88.9508 80.8904 89.1093 80.7319 89.2678C80.8112 89.1093 80.8508 88.9508 80.8508 88.7922C80.8508 88.6337 80.8904 88.5148 80.9697 88.4355C80.9697 87.7221 80.9301 87.2465 80.8508 87.0087C80.8508 86.8502 80.8112 86.7313 80.7319 86.652C80.7319 86.5727 80.7319 86.4934 80.7319 86.4142C80.5734 86.5727 80.4941 86.7709 80.4941 87.0087C80.4941 87.3258 80.4941 87.6428 80.4941 87.9599C80.4941 88.277 80.4148 88.5941 80.2563 88.9111C80.0978 89.1489 80.0185 89.5849 80.0185 90.2191C80.3356 90.0605 80.4941 89.9813 80.4941 89.9813C80.4941 89.902 80.5337 89.8624 80.613 89.8624C80.6923 89.8624 80.7715 89.902 80.8508 89.9813L80.613 92.5971C80.613 92.9142 80.5337 93.3105 80.3752 93.7861C80.2959 94.1032 80.2167 94.4599 80.1374 94.8563C80.1374 95.2526 80.1374 95.6489 80.1374 96.0453C80.2167 96.2831 80.2563 96.7191 80.2563 97.3532C80.4941 96.7191 80.6526 96.3624 80.7319 96.2831C80.8112 96.2038 80.9697 96.1642 81.2075 96.1642C81.2075 96.2434 81.1679 96.402 81.0886 96.6398C81.0093 96.8776 80.9697 97.0758 80.9697 97.2343L80.7319 97.591C80.5734 97.7495 80.5337 98.1063 80.613 98.6611C80.6923 98.5819 80.8904 98.5422 81.2075 98.5422C81.2075 98.78 81.2075 99.1367 81.2075 99.6123C81.2075 100.009 81.1282 100.445 80.9697 100.92L80.613 103.179C80.5337 103.417 80.4941 103.695 80.4941 104.012C80.4148 104.091 80.3752 104.17 80.3752 104.25C80.4545 104.329 80.4941 104.448 80.4941 104.606C80.4941 104.923 80.5337 105.201 80.613 105.439C80.6923 105.676 80.6923 105.914 80.613 106.152C80.4545 106.548 80.3752 106.945 80.3752 107.341C80.3752 107.737 80.4148 108.213 80.4941 108.768C80.4148 108.926 80.3752 109.125 80.3752 109.362C80.2959 109.6 80.2563 109.917 80.2563 110.314C80.3356 110.631 80.3356 110.987 80.2563 111.384C80.2563 111.939 80.2959 112.295 80.3752 112.454C80.3752 112.692 80.3356 112.89 80.2563 113.048C80.2563 113.207 80.2959 113.445 80.3752 113.762C80.3752 113.841 80.3752 113.92 80.3752 114C80.4545 114.079 80.4941 114.198 80.4941 114.356V115.783C80.4941 116.1 80.4941 116.417 80.4941 116.734C80.4941 116.972 80.5337 117.289 80.613 117.686C80.6923 118.003 80.6526 118.32 80.4941 118.637C80.4148 118.875 80.4148 119.112 80.4941 119.35C80.4941 119.35 80.4545 119.39 80.3752 119.469V120.301C80.3752 120.381 80.3752 120.46 80.3752 120.539C80.4545 120.618 80.4941 120.737 80.4941 120.896C80.5734 121.451 80.5734 122.006 80.4941 122.561C80.4941 123.115 80.5337 123.67 80.613 124.225V124.582C80.4545 125.375 80.6923 125.771 81.3264 125.771C81.7228 125.612 81.9606 125.454 82.0398 125.295C82.1984 125.533 82.238 125.652 82.1587 125.652C82.0795 125.89 81.9209 126.128 81.6831 126.365C81.4453 126.603 81.2075 126.841 80.9697 127.079C81.1282 127.158 81.2868 127.237 81.4453 127.317C81.6831 127.317 81.8417 127.396 81.9209 127.554C81.9209 127.634 81.8813 127.753 81.802 127.911H80.9697C80.8112 127.911 80.6923 127.951 80.613 128.03V128.981C80.613 129.457 80.8508 129.576 81.3264 129.338C81.7228 129.1 81.9606 128.783 82.0398 128.387L82.3965 128.149C82.6343 128.228 82.7532 128.466 82.7532 128.862C82.4362 128.942 82.1587 129.1 81.9209 129.338C81.7624 129.496 81.6039 129.734 81.4453 130.051L81.3264 130.289C81.2471 130.448 81.1679 130.606 81.0886 130.765C81.0093 130.923 80.9301 131.121 80.8508 131.359V132.311C80.9301 132.311 81.049 132.311 81.2075 132.311C81.366 132.311 81.5246 132.39 81.6831 132.548C81.5246 132.865 81.5246 133.064 81.6831 133.143C81.9209 133.143 82.0795 133.143 82.1587 133.143C82.0795 133.222 82.0398 133.381 82.0398 133.618C82.0398 133.777 82.0002 133.936 81.9209 134.094C82.0002 134.094 82.0795 134.094 82.1587 134.094C82.3173 134.015 82.5154 133.975 82.7532 133.975C83.1496 133.975 83.3478 133.737 83.3478 133.262C83.2685 133.024 83.0703 132.905 82.7532 132.905C82.5154 132.667 82.3173 132.39 82.1587 132.073H82.991C83.2288 132.073 83.3478 132.073 83.3478 132.073C83.7441 131.756 84.1008 131.597 84.4179 131.597C84.7349 131.597 85.052 131.557 85.3691 131.478C85.4484 131.399 85.6069 131.439 85.8447 131.597C86.1618 132.073 86.5978 132.112 87.1526 131.716L87.5093 131.121C88.3813 130.487 89.1343 129.893 89.7685 129.338C90.4026 128.704 91.0368 127.99 91.6709 127.198C92.3051 126.801 92.7807 126.365 93.0978 125.89C93.2563 125.811 93.3752 125.771 93.4545 125.771C93.613 125.692 93.7319 125.612 93.8112 125.533C93.6526 125.533 93.4941 125.493 93.3356 125.414C93.2563 125.256 93.1374 125.137 92.9788 125.057C92.8203 125.057 92.741 125.216 92.741 125.533C92.6618 125.612 92.5429 125.811 92.3843 126.128C92.1465 126.286 91.9484 126.484 91.7898 126.722C91.7106 126.881 91.5917 127 91.4331 127.079C91.1953 127.317 90.9575 127.515 90.7197 127.673C90.4819 127.753 90.2045 127.871 89.8874 128.03C89.491 128.189 89.2929 128.07 89.2929 127.673C89.6099 127.277 89.6099 126.96 89.2929 126.722C89.2136 126.564 89.2136 126.286 89.2929 125.89C89.4514 125.89 89.5307 125.89 89.5307 125.89C89.5307 125.811 89.5703 125.771 89.6496 125.771C89.8081 125.85 90.0459 125.89 90.363 125.89ZM89.7685 134.332C89.8478 134.253 90.0063 134.213 90.2441 134.213C90.4819 134.054 90.7197 133.856 90.9575 133.618C91.2746 133.301 91.5124 133.103 91.6709 133.024C92.1465 132.865 92.5032 132.628 92.741 132.311C93.0581 131.914 93.4148 131.597 93.8112 131.359C94.049 131.042 94.6038 130.725 95.4758 130.408C95.6343 130.25 95.7532 130.091 95.8325 129.932C95.9118 129.774 95.991 129.655 96.0703 129.576C95.9118 129.417 95.7532 129.298 95.5947 129.219C95.1191 129.219 94.8813 129.219 94.8813 129.219C94.802 129.298 94.6831 129.417 94.5246 129.576C94.4453 129.734 94.2868 129.932 94.049 130.17H93.9301C93.7715 130.012 93.613 130.012 93.4545 130.17C93.2959 130.329 93.0978 130.448 92.8599 130.527C92.8599 130.527 92.7014 130.606 92.3843 130.765C91.988 131.082 91.5917 131.439 91.1953 131.835C90.799 132.231 90.3234 132.548 89.7685 132.786C89.7685 132.786 89.7288 132.826 89.6496 132.905C89.6496 132.905 89.6496 132.945 89.6496 133.024C89.491 133.103 89.2929 133.301 89.0551 133.618C88.8965 133.856 88.738 134.054 88.5795 134.213C88.4209 134.371 88.3417 134.49 88.3417 134.57H88.8173C89.2136 134.173 89.5307 134.094 89.7685 134.332ZM77.4026 98.6611C77.4819 98.9782 77.5215 99.2556 77.5215 99.4934C77.6008 99.7313 77.6801 99.9294 77.7593 100.088C77.9179 100.564 77.9971 100.801 77.9971 100.801C77.9971 100.722 78.0368 100.682 78.116 100.682C78.1953 100.603 78.2349 100.524 78.2349 100.445V99.8502C78.2349 99.6916 78.1953 99.5727 78.116 99.4934C78.116 99.4142 78.116 99.2953 78.116 99.1367C78.0368 98.9782 77.9971 98.8593 77.9971 98.78C78.0764 98.6215 78.0764 98.5026 77.9971 98.4233C77.8386 97.8684 77.6404 97.4325 77.4026 97.1154C77.7197 96.7191 77.8782 96.1245 77.8782 95.3319C77.9575 94.5392 77.9179 94.1032 77.7593 94.0239C77.6801 94.2617 77.5612 94.4203 77.4026 94.4995C77.2441 94.5788 77.1252 94.6977 77.0459 94.8563C76.9667 94.9355 76.8478 95.0148 76.6892 95.0941V96.6398C76.6892 96.8776 76.6892 97.0758 76.6892 97.2343C76.6892 97.3928 76.6892 97.591 76.6892 97.8288V99.3745C77.0063 98.9782 77.2441 98.7404 77.4026 98.6611ZM87.866 137.067C88.3417 137.067 88.6587 136.987 88.8173 136.829C88.8965 136.67 88.8965 136.512 88.8173 136.353C88.8173 136.115 88.8569 135.957 88.9362 135.878V135.521C88.6984 135.521 88.5398 135.561 88.4606 135.64C88.3813 135.64 88.2624 135.679 88.1038 135.759C88.0246 135.759 87.9453 135.759 87.866 135.759C87.549 135.759 87.3904 135.957 87.3904 136.353C87.3904 136.829 87.549 137.067 87.866 137.067ZM92.3843 129.695C92.6221 129.695 92.741 129.615 92.741 129.457C92.741 129.378 92.741 129.338 92.741 129.338C92.741 129.259 92.741 129.179 92.741 129.1V128.625C92.6618 128.783 92.5825 128.902 92.5032 128.981C92.424 128.981 92.3843 129.021 92.3843 129.1C92.3843 129.338 92.2654 129.457 92.0276 129.457C91.8691 129.457 91.7106 129.457 91.552 129.457C91.3142 129.378 91.1953 129.536 91.1953 129.932C91.1953 130.17 91.2349 130.368 91.3142 130.527C91.4728 130.606 91.5917 130.606 91.6709 130.527C92.0673 130.527 92.424 130.408 92.741 130.17C92.6618 130.012 92.5825 129.932 92.5032 129.932C92.5032 129.853 92.4636 129.774 92.3843 129.695ZM96.0703 132.311C96.5459 132.311 96.7837 132.073 96.7837 131.597C96.7837 131.597 96.7045 131.439 96.5459 131.121C96.2288 131.439 96.0307 131.676 95.9514 131.835L96.0703 132.311ZM89.8874 131.359V131.121C89.5703 131.121 89.3721 131.24 89.2929 131.478C89.2136 131.716 89.0947 131.954 88.9362 132.192C89.174 132.192 89.2929 132.073 89.2929 131.835C89.6099 131.756 89.8081 131.597 89.8874 131.359ZM77.6404 115.307H77.8782C77.9575 114.911 77.9575 114.554 77.8782 114.237L77.7593 113.762C77.6801 114 77.6008 114.158 77.5215 114.237C77.5215 114.237 77.5215 114.277 77.5215 114.356C77.6008 114.515 77.6404 114.832 77.6404 115.307ZM85.0124 137.423H85.8447C85.8447 137.186 85.7654 137.067 85.6069 137.067C85.5276 136.908 85.4087 136.908 85.2502 137.067C85.1709 137.146 85.0917 137.265 85.0124 137.423ZM65.5124 133.143C65.5124 132.984 65.4728 132.865 65.3935 132.786C65.3935 132.707 65.3538 132.588 65.2746 132.429C65.2746 132.429 65.2349 132.429 65.1557 132.429C65.1557 132.35 65.116 132.311 65.0368 132.311C65.0368 132.311 65.0368 132.35 65.0368 132.429C65.0368 132.429 64.9971 132.429 64.9179 132.429C64.9179 132.905 65.116 133.143 65.5124 133.143ZM80.1374 92.1215C80.1374 92.3593 80.1374 92.6367 80.1374 92.9538C80.2167 93.1916 80.2563 93.3898 80.2563 93.5483C80.4148 92.8349 80.3752 92.3593 80.1374 92.1215ZM65.8691 135.045C65.552 135.679 65.7898 135.996 66.5825 135.996C66.424 135.838 66.2654 135.719 66.1069 135.64C66.0276 135.481 65.9484 135.283 65.8691 135.045ZM94.5246 128.149C94.5246 128.07 94.5246 128.03 94.5246 128.03C94.6039 127.951 94.6435 127.871 94.6435 127.792C94.6435 127.634 94.6039 127.515 94.5246 127.436C94.5246 127.356 94.5246 127.277 94.5246 127.198C94.5246 127.277 94.4849 127.356 94.4057 127.436C94.4057 127.515 94.4057 127.634 94.4057 127.792C94.4057 127.951 94.4453 128.07 94.5246 128.149ZM80.613 89.8624C80.613 89.7038 80.613 89.5849 80.613 89.5056C80.6923 89.4264 80.7319 89.3471 80.7319 89.2678C80.4941 89.5056 80.4545 89.7038 80.613 89.8624ZM108.912 123.512C108.833 123.591 108.753 123.75 108.674 123.987C108.595 124.146 108.476 124.304 108.317 124.463C108.238 124.542 107.961 124.661 107.485 124.82C107.326 124.82 107.247 124.939 107.247 125.176C107.247 125.493 107.208 125.692 107.128 125.771C107.049 125.771 106.93 125.85 106.772 126.009C106.692 126.009 106.573 126.128 106.415 126.365C106.177 126.603 106.018 126.722 105.939 126.722C105.464 126.564 105.226 126.762 105.226 127.317C105.067 127.634 104.869 127.673 104.631 127.436C104.631 127.356 104.631 127.277 104.631 127.198C104.711 127.118 104.75 127.039 104.75 126.96C104.433 126.801 104.156 126.603 103.918 126.365H104.631C104.869 126.365 105.028 126.326 105.107 126.246C105.265 126.167 105.424 126.128 105.583 126.128C105.9 125.969 106.177 125.811 106.415 125.652C106.732 125.493 106.97 125.256 107.128 124.939C107.208 124.859 107.247 124.78 107.247 124.701C107.564 124.542 107.842 124.344 108.079 124.106C108.397 123.789 108.634 123.551 108.793 123.393L108.912 123.512ZM102.848 129.695C102.61 129.774 102.372 129.972 102.134 130.289C101.897 130.527 101.619 130.606 101.302 130.527C101.302 130.448 101.223 130.487 101.064 130.646L100.351 131.121C100.034 131.359 99.8356 131.28 99.7563 130.884C99.9148 130.725 100.113 130.567 100.351 130.408C100.589 130.17 100.866 129.932 101.183 129.695C101.659 129.853 101.936 129.695 102.015 129.219C102.174 129.298 102.333 129.417 102.491 129.576C102.491 129.655 102.61 129.695 102.848 129.695ZM90.7197 139.088C91.1953 138.929 91.5917 138.771 91.9087 138.612C91.9087 138.692 91.9087 138.771 91.9087 138.85C91.9087 138.85 91.9087 138.89 91.9087 138.969L91.3142 139.326C90.9179 139.405 90.5215 139.564 90.1252 139.801C89.7288 140.039 89.3325 140.237 88.9362 140.396C88.9362 140.396 88.8173 140.396 88.5795 140.396C88.6587 140.317 88.6984 140.237 88.6984 140.158C88.6984 140.079 88.738 140.039 88.8173 140.039C89.0551 139.881 89.2929 139.762 89.5307 139.682C89.7685 139.603 90.0063 139.524 90.2441 139.445C90.4026 139.365 90.5612 139.246 90.7197 139.088ZM81.9209 131.835C81.8417 131.676 81.8417 131.557 81.9209 131.478C82.0002 131.32 82.0795 131.201 82.1587 131.121C82.238 131.121 82.3569 131.082 82.5154 131.003C82.674 130.923 82.7532 130.884 82.7532 130.884C82.7532 130.804 82.7929 130.725 82.8721 130.646C83.1099 130.884 83.2288 131.042 83.2288 131.121C83.2288 131.359 83.0703 131.557 82.7532 131.716C82.5154 131.716 82.3173 131.756 82.1587 131.835C82.0795 131.835 82.0002 131.835 81.9209 131.835ZM96.9026 135.759C96.9819 135.125 97.1801 134.807 97.4971 134.807C97.8142 134.728 98.052 134.57 98.2106 134.332C98.1313 134.49 98.0917 134.689 98.0917 134.926C98.0917 135.085 98.0124 135.283 97.8539 135.521C97.7746 135.6 97.616 135.64 97.3782 135.64C97.2197 135.64 97.0612 135.679 96.9026 135.759ZM87.1526 140.753C87.4697 140.594 87.5886 140.515 87.5093 140.515C87.5886 140.515 87.6679 140.554 87.7471 140.634C87.8264 140.634 87.9057 140.634 87.9849 140.634L87.6282 140.871C87.549 140.871 87.4697 140.871 87.3904 140.871C87.3904 140.792 87.3112 140.753 87.1526 140.753ZM92.6221 138.375C92.6221 138.137 92.8599 138.057 93.3356 138.137C92.8599 138.295 92.6221 138.375 92.6221 138.375ZM89.5307 124.463C89.2929 124.701 89.0154 124.82 88.6984 124.82C88.6191 124.82 88.5002 124.859 88.3417 124.939C88.2624 124.939 88.1435 124.939 87.9849 124.939C87.9057 124.939 87.8264 124.939 87.7471 124.939C87.6679 124.859 87.6282 124.82 87.6282 124.82C87.6282 124.503 87.5886 124.344 87.5093 124.344C87.4301 124.344 87.3508 124.423 87.2715 124.582C87.2715 124.661 87.2319 124.701 87.1526 124.701C87.3112 124.542 87.3508 124.344 87.2715 124.106C87.2715 123.789 87.3112 123.591 87.3904 123.512C87.866 123.432 88.1831 123.472 88.3417 123.631C88.4209 123.71 88.5398 123.829 88.6984 123.987C88.8569 124.067 89.0154 124.146 89.174 124.225C89.174 124.225 89.2929 124.304 89.5307 124.463ZM88.2228 127.198C88.0642 127.277 87.9057 127.356 87.7471 127.436C87.6679 127.436 87.7075 127.594 87.866 127.911C87.866 127.911 87.8264 127.951 87.7471 128.03C87.6679 128.109 87.5886 128.149 87.5093 128.149L87.1526 127.792C87.1526 127.554 87.1923 127.356 87.2715 127.198C87.3508 127.039 87.3904 126.92 87.3904 126.841C87.7075 126.524 87.9849 126.643 88.2228 127.198ZM88.2228 127.198C88.5398 126.881 88.738 126.96 88.8173 127.436C88.8965 127.673 88.9758 127.832 89.0551 127.911C89.1343 127.99 89.2136 128.109 89.2929 128.268C89.2136 128.347 89.0551 128.387 88.8173 128.387C88.738 128.228 88.6587 128.07 88.5795 127.911C88.5002 127.753 88.3813 127.515 88.2228 127.198ZM104.156 91.4081C104.631 91.0117 104.988 90.655 105.226 90.338C105.464 90.0209 105.701 89.7831 105.939 89.6245C106.811 89.7831 107.326 89.9813 107.485 90.2191C107.643 90.3776 107.287 90.8928 106.415 91.7648C106.177 91.7648 105.9 91.7648 105.583 91.7648C105.265 91.6855 104.79 91.5666 104.156 91.4081ZM85.8447 128.387C85.924 128.783 86.0429 129.14 86.2014 129.457C85.8051 129.457 85.5673 129.417 85.488 129.338C85.5673 129.179 85.6069 129.021 85.6069 128.862C85.6862 128.625 85.7654 128.466 85.8447 128.387ZM90.2441 124.582C90.4026 124.74 90.4819 124.859 90.4819 124.939C90.4026 124.939 90.3234 124.978 90.2441 125.057C90.2441 125.137 90.2045 125.176 90.1252 125.176H89.8874C89.8874 125.018 89.927 124.899 90.0063 124.82C90.0856 124.74 90.1648 124.661 90.2441 124.582Z" fill="#014130"/>
<path d="M146.484 118.28C146.642 118.201 146.761 118.082 146.841 117.924C146.999 117.845 147.158 117.765 147.316 117.686C146.92 117.052 146.444 116.774 145.889 116.854H143.273C142.956 116.774 142.6 116.774 142.203 116.854C141.886 116.933 141.569 116.893 141.252 116.735C141.173 116.655 141.054 116.576 140.895 116.497C140.737 116.497 140.578 116.457 140.42 116.378L139.825 116.259C139.033 116.418 138.319 116.299 137.685 115.902C138.161 115.823 138.636 115.784 139.112 115.784C139.667 115.784 140.222 115.784 140.776 115.784C141.094 115.704 141.371 115.625 141.609 115.546C141.847 115.466 141.966 115.189 141.966 114.713H143.749C143.987 114.634 144.225 114.555 144.462 114.476C144.7 114.396 144.978 114.317 145.295 114.238C145.691 114.238 145.85 113.96 145.77 113.405C145.453 113.405 145.136 113.405 144.819 113.405C144.502 113.326 144.225 113.128 143.987 112.811C143.987 112.811 143.868 112.811 143.63 112.811C143.472 112.811 143.353 112.89 143.273 113.049C142.956 113.366 142.56 113.524 142.084 113.524C141.688 113.445 141.292 113.405 140.895 113.405C140.658 113.326 140.42 113.326 140.182 113.405C139.944 113.405 139.706 113.405 139.469 113.405C139.151 113.564 138.755 113.723 138.28 113.881C137.883 113.881 137.606 113.841 137.447 113.762C137.209 113.445 136.813 113.405 136.258 113.643C135.941 113.168 135.703 112.89 135.545 112.811C135.466 112.732 135.188 112.732 134.712 112.811C133.999 113.049 133.325 113.128 132.691 113.049C132.533 112.89 132.295 112.851 131.978 112.93C131.74 113.009 131.502 113.088 131.264 113.168C131.423 113.485 131.7 113.604 132.097 113.524C132.572 113.445 132.81 113.683 132.81 114.238C132.81 114.238 132.77 114.238 132.691 114.238C132.691 114.317 132.651 114.357 132.572 114.357C131.78 114.277 130.947 114.238 130.075 114.238C129.283 114.238 128.45 114.238 127.578 114.238C127.103 114.159 126.627 114.079 126.151 114C125.755 113.841 125.319 113.723 124.844 113.643C124.764 113.643 124.685 113.604 124.606 113.524C124.606 113.445 124.566 113.405 124.487 113.405C123.932 113.009 123.496 112.811 123.179 112.811C122.941 112.811 122.584 112.97 122.109 113.287C121.158 112.811 120.286 112.256 119.493 111.622C118.7 110.909 117.908 110.235 117.115 109.601C116.956 109.442 116.798 109.244 116.639 109.006C116.481 108.768 116.283 108.61 116.045 108.53C115.728 108.293 115.569 108.015 115.569 107.698C115.49 107.381 115.49 107.064 115.569 106.747C115.728 106.43 115.609 106.192 115.212 106.034C114.737 105.637 114.42 105.201 114.261 104.726C114.023 104.171 113.825 103.616 113.667 103.061C113.587 102.823 113.508 102.625 113.429 102.466C113.27 102.229 113.151 101.991 113.072 101.753V100.683C113.072 100.207 113.35 100.128 113.905 100.445C114.539 100.524 115.133 100.802 115.688 101.277C116.164 101.674 116.679 102.11 117.234 102.585C117.472 102.665 117.591 103.021 117.591 103.655C117.67 104.21 118.026 104.607 118.661 104.845C118.819 104.845 119.017 104.963 119.255 105.201C120.206 105.835 121.197 106.192 122.228 106.271C122.941 106.43 123.655 106.628 124.368 106.866C125.081 107.024 125.795 107.143 126.508 107.223C126.905 107.302 127.261 107.46 127.578 107.698C127.895 107.857 128.252 107.896 128.648 107.817L127.578 108.768C127.816 109.244 128.133 109.482 128.53 109.482C128.926 109.402 129.322 109.363 129.719 109.363C129.639 109.68 129.6 109.997 129.6 110.314C129.6 110.631 129.52 110.948 129.362 111.265C129.283 111.741 128.926 111.899 128.292 111.741C128.054 111.582 127.856 111.543 127.697 111.622C127.539 111.622 127.341 111.622 127.103 111.622C126.548 111.622 126.191 111.543 126.033 111.384C125.161 111.146 124.368 111.226 123.655 111.622L123.773 111.741C124.17 111.82 124.566 111.939 124.962 112.098C125.359 112.177 125.755 112.216 126.151 112.216H127.222C128.252 112.692 129.362 112.811 130.551 112.573C131.185 112.415 131.859 112.335 132.572 112.335C133.286 112.256 134.039 112.177 134.831 112.098C135.069 112.098 135.307 112.137 135.545 112.216C135.783 112.216 136.02 112.335 136.258 112.573C136.258 112.732 136.456 112.811 136.853 112.811C136.853 112.811 136.892 112.771 136.972 112.692C137.051 112.534 137.091 112.375 137.091 112.216V111.86C138.755 111.86 140.459 111.622 142.203 111.146C142.6 110.988 142.956 110.79 143.273 110.552C143.67 110.235 144.026 109.957 144.344 109.72C144.185 108.927 144.026 108.53 143.868 108.53C143.709 108.53 143.353 108.729 142.798 109.125C142.243 108.332 141.45 108.174 140.42 108.649C139.706 108.966 139.033 109.165 138.398 109.244C138.161 109.244 137.883 109.244 137.566 109.244C137.328 109.165 137.091 109.125 136.853 109.125C136.773 108.729 136.932 108.451 137.328 108.293C137.725 108.055 137.725 107.738 137.328 107.341C137.566 107.183 137.764 107.064 137.923 106.985C138.161 106.905 138.438 106.826 138.755 106.747C139.072 106.747 139.389 106.747 139.706 106.747C140.103 106.747 140.459 106.588 140.776 106.271C140.301 105.875 139.825 105.796 139.35 106.034C138.953 106.271 138.557 106.351 138.161 106.271C138.161 105.796 138.002 105.399 137.685 105.082C138.161 104.924 138.597 104.845 138.993 104.845C139.389 104.765 139.786 104.686 140.182 104.607C141.054 104.369 141.966 104.131 142.917 103.893C143.947 103.576 144.978 103.22 146.008 102.823C147.197 102.585 148.109 102.03 148.743 101.159L149.456 100.683C150.408 100.604 150.764 100.128 150.526 99.2561C150.526 98.7012 150.764 98.3049 151.24 98.0671C151.874 97.6707 152.469 97.2348 153.023 96.7591C153.578 96.2835 154.173 95.8872 154.807 95.5701C155.203 95.3323 155.481 95.0152 155.639 94.6189C155.798 94.1433 155.917 93.747 155.996 93.4299C156.155 93.1128 156.234 92.6768 156.234 92.122C155.996 92.0427 155.719 91.9238 155.401 91.7652C155.164 91.5274 154.847 91.4878 154.45 91.6463C154.054 91.6463 153.578 91.4482 153.023 91.0518C152.231 90.5762 151.478 90.1006 150.764 89.625C150.051 89.1494 149.298 88.6341 148.505 88.0793C148.188 87.9207 147.871 87.7622 147.554 87.6037C147.237 87.4451 146.88 87.2866 146.484 87.128C145.136 86.4146 143.908 85.4238 142.798 84.1555C141.609 83.3628 140.499 82.4116 139.469 81.3018C139.151 80.8262 138.755 80.3902 138.28 79.9939C137.883 79.5183 137.487 79.122 137.091 78.8049C136.932 78.6463 136.773 78.4878 136.615 78.3293C136.456 78.0915 136.298 77.8537 136.139 77.6159C135.743 76.9817 135.347 76.3476 134.95 75.7134C134.554 75 134.039 74.3659 133.405 73.811C133.246 73.5732 133.127 73.3354 133.048 73.0976C132.969 72.8598 133.008 72.5823 133.167 72.2652C132.612 72.1067 132.216 71.8293 131.978 71.4329C131.74 70.9573 131.502 70.561 131.264 70.2439C131.185 70.0061 131.066 69.7683 130.908 69.5305C130.828 69.2927 130.709 69.0549 130.551 68.8171C130.075 68.3415 129.956 67.8659 130.194 67.3902C130.273 67.5488 130.353 67.747 130.432 67.9848C130.591 68.1433 130.709 68.3018 130.789 68.4604C131.185 68.4604 131.542 68.5396 131.859 68.6982C131.859 68.4604 131.819 68.2226 131.74 67.9848C131.74 67.747 131.74 67.5091 131.74 67.2713C131.661 67.0335 131.621 66.5976 131.621 65.9634V64.4177C131.7 63.625 131.78 62.8323 131.859 62.0396C131.938 61.1677 132.017 60.2957 132.097 59.4238C132.176 58.9482 132.295 58.5122 132.453 58.1159C132.612 57.7195 132.731 57.2835 132.81 56.8079C133.127 56.0152 133.444 55.2622 133.761 54.5488C134.078 53.8354 134.395 53.0823 134.712 52.2896L135.783 50.625C135.941 50.3872 136.1 50.189 136.258 50.0305C136.496 49.7927 136.655 49.5152 136.734 49.1982C136.813 48.9604 136.932 48.7226 137.091 48.4848C137.328 48.247 137.526 48.0488 137.685 47.8902C138.161 47.4939 138.597 47.1372 138.993 46.8201C139.469 46.5031 139.944 46.1463 140.42 45.75C140.658 45.5915 140.895 45.5122 141.133 45.5122C141.45 45.4329 141.728 45.5122 141.966 45.75C141.014 46.4634 140.42 47.3354 140.182 48.3659L140.301 48.6037C140.459 48.4451 140.618 48.3659 140.776 48.3659C140.935 48.3659 141.054 48.3262 141.133 48.2469C141.292 48.0884 141.45 47.9299 141.609 47.7713C141.767 47.5335 141.886 47.2957 141.966 47.0579C142.124 47.0579 142.203 47.0183 142.203 46.939C142.283 46.8598 142.322 46.8201 142.322 46.8201C142.639 46.8201 142.837 46.7805 142.917 46.7012C143.392 46.4634 143.828 46.2256 144.225 45.9878C144.7 45.6707 145.176 45.3537 145.651 45.0366L145.414 44.7988C144.938 44.7988 144.661 44.7591 144.581 44.6799C144.502 44.6006 144.423 44.3232 144.344 43.8476C144.264 43.689 144.145 43.5305 143.987 43.3719C143.908 43.1341 143.789 42.8963 143.63 42.6585L144.225 42.064C143.273 41.3506 143.313 40.7165 144.344 40.1616C144.106 39.8445 143.789 39.7256 143.392 39.8049C143.155 39.9634 142.956 40.122 142.798 40.2805C142.639 40.439 142.441 40.5579 142.203 40.6372C142.124 40.7165 142.005 40.7561 141.847 40.7561C141.688 40.7561 141.53 40.8354 141.371 40.9939C141.53 40.5183 141.728 40.2012 141.966 40.0427C142.441 39.4878 142.956 38.9329 143.511 38.378C144.066 37.8232 144.621 37.3872 145.176 37.0701C145.81 36.5152 146.444 36.0396 147.078 35.6433C147.792 35.1677 148.505 34.6921 149.219 34.2165C149.615 33.8994 150.011 33.622 150.408 33.3841C150.804 33.0671 151.161 32.75 151.478 32.4329C151.795 32.1951 152.112 31.9177 152.429 31.6006C152.825 31.2043 153.182 30.8476 153.499 30.5305C153.499 30.4512 153.539 30.4116 153.618 30.4116C153.697 30.3323 153.776 30.2134 153.856 30.0549C153.222 30.2134 152.627 30.4116 152.072 30.6494C151.517 30.8872 150.923 31.0061 150.289 31.0061C150.447 30.6098 150.645 30.3323 150.883 30.1738L152.905 29.4604C153.222 29.3018 153.499 29.1829 153.737 29.1037C153.975 29.0244 154.252 28.9451 154.569 28.8659C155.203 28.7073 155.877 28.5488 156.591 28.3902C157.304 28.1524 157.938 27.9939 158.493 27.9146C158.731 27.7561 158.969 27.6372 159.206 27.5579C159.444 27.3994 159.682 27.2409 159.92 27.0823C160.475 26.7652 160.99 26.7652 161.466 27.0823C161.862 27.3201 162.219 27.5579 162.536 27.7957C162.932 27.9543 163.209 28.2317 163.368 28.628C164.874 28.8659 166.103 29.6982 167.054 31.125C167.054 31.125 167.054 31.1646 167.054 31.2439C167.054 31.2439 167.094 31.2439 167.173 31.2439L169.075 33.1463C169.63 34.0183 170.264 34.8902 170.978 35.7622C171.453 36.3963 171.77 37.0701 171.929 37.7835C172.167 38.4969 172.405 39.1707 172.642 39.8049C173.197 41.0732 173.197 42.3811 172.642 43.7287C172.642 43.8872 172.603 44.0457 172.523 44.2043C172.523 44.3628 172.563 44.5213 172.642 44.6799C172.642 45.0762 172.682 45.3933 172.761 45.6311C172.841 45.8689 172.722 46.186 172.405 46.5823C172.325 46.6616 172.286 46.8201 172.286 47.0579C172.365 47.2957 172.405 47.4939 172.405 47.6524H171.216C170.502 47.7317 170.383 48.0884 170.859 48.7226C171.176 49.2774 171.057 49.6341 170.502 49.7927C170.185 49.8719 170.026 50.1494 170.026 50.625C170.026 50.8628 169.947 51.1402 169.789 51.4573C169.709 51.6951 169.63 51.9726 169.551 52.2896C169.472 51.814 169.353 51.4177 169.194 51.1006C169.115 50.7835 169.036 50.4665 168.956 50.1494C168.956 49.9909 168.877 49.9116 168.719 49.9116C168.639 49.8323 168.56 49.753 168.481 49.6738L168.005 50.3872C167.926 50.9421 167.847 51.497 167.767 52.0518C167.688 52.6067 167.609 53.1616 167.53 53.7165C167.45 54.5091 167.371 55.3018 167.292 56.0945C167.292 56.8872 167.014 57.6402 166.459 58.3537C166.142 58.0366 165.984 57.6402 165.984 57.1646C166.063 56.689 166.023 56.2134 165.865 55.7378C165.627 56.0549 165.429 56.4116 165.27 56.8079C165.112 57.125 164.914 57.4024 164.676 57.6402C164.517 57.878 164.319 58.1555 164.081 58.4726C163.844 58.7896 163.487 59.0274 163.011 59.186C162.932 58.7104 162.892 58.2744 162.892 57.878C162.892 57.4024 162.813 57.0061 162.655 56.689C162.655 56.0549 162.536 55.6189 162.298 55.3811C162.219 55.3018 162.139 55.1829 162.06 55.0244C162.06 54.8659 162.02 54.747 161.941 54.6677C161.941 54.2713 161.901 53.9146 161.822 53.5976C161.584 53.6768 161.307 53.875 160.99 54.1921C160.99 54.1128 160.95 54.0335 160.871 53.9543C160.871 53.875 160.871 53.8354 160.871 53.8354C160.871 53.6768 160.871 53.5579 160.871 53.4787C160.95 53.3201 160.99 53.122 160.99 52.8841C160.752 53.0427 160.435 53.122 160.039 53.122C160.356 52.6463 160.554 52.1707 160.633 51.6951C160.792 51.2195 160.712 50.7043 160.395 50.1494C160.316 50.2287 160.237 50.3476 160.158 50.5061C160.078 50.6646 160.039 50.7835 160.039 50.8628H159.92C159.841 50.5457 159.801 50.2287 159.801 49.9116C159.801 49.5945 159.722 49.2378 159.563 48.8415C159.246 48.8415 158.969 48.8415 158.731 48.8415C158.493 48.8415 158.216 48.9207 157.898 49.0793C156.313 49.3171 154.966 49.6738 153.856 50.1494C152.35 50.625 151.002 51.3384 149.813 52.2896C149.575 52.5274 149.298 52.8049 148.981 53.122C148.743 53.3598 148.426 53.5976 148.03 53.8354C147.633 54.1524 147.276 54.5884 146.959 55.1433C146.722 55.6189 146.405 56.0549 146.008 56.4512C145.691 57.0854 145.295 57.7195 144.819 58.3537C144.423 58.9878 144.026 59.622 143.63 60.2561C143.155 60.811 142.837 61.0488 142.679 60.9695C142.6 60.8902 142.481 61.2073 142.322 61.9207C142.243 62.2378 142.283 62.6341 142.441 63.1098C142.6 63.5854 142.719 64.061 142.798 64.5366C143.194 65.3293 143.551 66.1616 143.868 67.0335C144.264 67.8262 144.74 68.6189 145.295 69.4116C146.246 70.5213 147.197 71.6311 148.148 72.7409C149.179 73.7713 150.249 74.7226 151.359 75.5945C152.151 76.2287 152.944 76.8628 153.737 77.497C154.609 78.0518 155.441 78.6463 156.234 79.2805C157.026 79.7561 157.78 80.2317 158.493 80.7073C159.286 81.1829 160.078 81.6585 160.871 82.1341L165.508 85.2256C165.667 85.3049 165.905 85.5823 166.222 86.0579C166.38 86.375 166.578 86.6524 166.816 86.8902C167.133 87.128 167.45 87.3659 167.767 87.6037C168.719 88.0793 169.511 88.6738 170.145 89.3872C170.859 90.1006 171.493 90.8933 172.048 91.7652C172.523 92.4787 172.88 93.2317 173.118 94.0244C173.435 94.8171 173.871 95.5305 174.426 96.1646C174.505 96.2439 174.505 96.4024 174.426 96.6402C174.426 96.878 174.466 97.1159 174.545 97.3537C174.703 97.3537 174.822 97.3933 174.901 97.4726C175.06 97.5518 175.258 97.5915 175.496 97.5915C175.496 97.9085 175.456 98.3841 175.377 99.0183C175.377 99.6524 175.219 100.802 174.901 102.466C174.743 102.546 174.584 102.665 174.426 102.823C174.267 102.902 174.109 103.021 173.95 103.18C173.95 103.735 173.99 104.171 174.069 104.488C173.752 104.567 173.554 104.527 173.475 104.369C173.475 104.21 173.395 104.091 173.237 104.012C173.078 103.695 172.88 103.537 172.642 103.537C172.008 103.695 171.77 103.933 171.929 104.25C172.008 104.488 171.969 104.646 171.81 104.726C171.731 104.805 171.612 104.924 171.453 105.082C170.581 105.637 169.749 106.509 168.956 107.698C168.719 108.253 168.362 108.729 167.886 109.125C167.49 109.442 167.054 109.799 166.578 110.195C166.499 110.274 166.341 110.354 166.103 110.433C165.944 110.512 165.746 110.552 165.508 110.552C164.557 110.314 163.923 110.591 163.606 111.384C163.606 111.86 163.368 112.177 162.892 112.335C162.655 112.335 162.536 112.494 162.536 112.811C162.456 113.128 162.298 113.405 162.06 113.643C161.981 113.723 161.862 113.802 161.703 113.881C161.624 113.881 161.505 113.96 161.347 114.119H161.109C160.554 114.595 159.959 114.515 159.325 113.881C159.008 113.96 158.731 114 158.493 114C158.255 114.079 158.057 114.159 157.898 114.238C157.502 114.396 157.145 114.555 156.828 114.713C156.511 114.951 156.194 115.149 155.877 115.308C155.798 115.387 155.719 115.466 155.639 115.546C155.56 115.704 155.481 115.784 155.401 115.784C155.005 115.704 154.688 115.744 154.45 115.902C154.292 116.14 154.094 116.299 153.856 116.378C153.618 116.537 153.38 116.616 153.142 116.616C152.905 116.616 152.667 116.616 152.429 116.616C152.112 116.933 151.755 117.091 151.359 117.091C151.042 117.171 150.685 117.25 150.289 117.329C150.051 117.409 149.813 117.488 149.575 117.567C149.337 117.646 149.1 117.726 148.862 117.805C148.466 117.884 148.069 117.963 147.673 118.043C147.276 118.201 146.88 118.28 146.484 118.28ZM121.99 108.649C122.307 108.808 122.505 108.768 122.584 108.53C122.188 107.896 121.554 107.619 120.682 107.698C120.682 108.095 120.841 108.332 121.158 108.412C121.475 108.491 121.752 108.57 121.99 108.649ZM129.719 107.817C130.036 107.659 130.432 107.619 130.908 107.698C130.432 107.698 130.036 107.738 129.719 107.817ZM136.258 105.32V105.082C136.417 105.082 136.536 105.082 136.615 105.082C136.773 105.082 136.932 105.082 137.091 105.082V105.201C136.932 105.201 136.773 105.241 136.615 105.32C136.536 105.32 136.417 105.32 136.258 105.32ZM152.429 116.616C152.587 116.457 152.746 116.338 152.905 116.259C153.142 116.259 153.261 116.101 153.261 115.784C152.865 115.625 152.587 115.546 152.429 115.546C152.35 115.625 152.151 115.902 151.834 116.378C152.151 116.378 152.35 116.457 152.429 116.616ZM145.414 109.72C145.889 109.64 146.365 109.561 146.841 109.482C147.395 109.402 147.911 109.204 148.386 108.887C148.624 108.887 148.743 108.768 148.743 108.53C148.743 108.372 148.664 108.253 148.505 108.174C148.426 108.015 148.347 107.896 148.267 107.817C148.109 107.817 147.95 107.857 147.792 107.936C147.633 108.015 147.475 108.055 147.316 108.055C147.158 108.055 146.999 108.095 146.841 108.174C146.761 108.174 146.642 108.174 146.484 108.174C145.929 108.095 145.572 108.174 145.414 108.412C145.334 108.57 145.334 109.006 145.414 109.72ZM162.655 113.762C162.575 113.524 162.536 113.207 162.536 112.811C162.536 112.97 162.615 113.088 162.773 113.168C162.932 113.247 162.892 113.445 162.655 113.762ZM163.962 113.762C163.962 112.97 164.319 112.573 165.033 112.573C165.112 112.573 165.151 112.613 165.151 112.692C165.072 112.851 164.914 113.009 164.676 113.168C164.438 113.326 164.2 113.524 163.962 113.762ZM129.243 62.9909C129.005 62.5945 128.926 62.1982 129.005 61.8018C129.164 61.4055 129.243 60.9695 129.243 60.4939C129.481 60.8902 129.6 61.247 129.6 61.564C129.679 61.8811 129.719 62.1982 129.719 62.5152C129.719 62.5945 129.639 62.6738 129.481 62.753C129.401 62.8323 129.322 62.9116 129.243 62.9909ZM132.216 53.5976C132.136 53.439 132.057 53.3201 131.978 53.2409C131.898 53.0823 131.819 52.9238 131.74 52.7652C131.978 52.6067 132.216 52.4482 132.453 52.2896C132.691 52.1311 132.969 51.9726 133.286 51.814C133.127 52.4482 132.969 52.9634 132.81 53.3598C132.81 53.439 132.731 53.5183 132.572 53.5976C132.414 53.5976 132.295 53.5976 132.216 53.5976ZM134.712 50.1494C134.395 49.1982 134.752 48.6829 135.783 48.6037C135.703 49.1585 135.347 49.6738 134.712 50.1494ZM143.392 45.5122C143.313 45.2744 143.273 45.1555 143.273 45.1555C143.273 45.0762 143.392 45.0366 143.63 45.0366C143.63 45.0366 143.63 45.0762 143.63 45.1555C143.709 45.1555 143.749 45.1555 143.749 45.1555L143.392 45.5122ZM148.03 43.1341C148.426 42.9756 148.783 42.8567 149.1 42.7774C149.417 42.6189 149.655 42.3018 149.813 41.8262C149.258 41.6677 148.901 41.7073 148.743 41.9451C148.664 42.1037 148.426 42.5 148.03 43.1341ZM146.959 42.1829C147.514 42.1037 147.99 41.7866 148.386 41.2317C148.703 40.7561 149.139 40.7165 149.694 41.1128C149.853 41.2713 150.051 41.3902 150.289 41.4695C150.526 41.5488 150.764 41.6677 151.002 41.8262C151.398 41.5091 151.755 41.1921 152.072 40.875C152.469 40.4787 152.905 40.2409 153.38 40.1616C153.856 40.003 154.094 39.686 154.094 39.2104C154.331 38.9726 154.45 38.6159 154.45 38.1402C154.371 37.9817 154.252 37.8628 154.094 37.7835C154.014 37.625 153.935 37.4665 153.856 37.3079C154.252 36.6738 154.648 36.5152 155.045 36.8323C155.52 37.0701 155.956 37.189 156.353 37.189C156.432 36.9512 156.511 36.7134 156.591 36.4756C156.67 36.2378 156.789 35.9604 156.947 35.6433C156.709 35.6433 156.511 35.6433 156.353 35.6433C156.194 35.564 156.036 35.564 155.877 35.6433C155.481 35.7226 155.084 35.8415 154.688 36C154.292 36.0793 153.895 36.1585 153.499 36.2378C153.182 36.3171 152.944 36.436 152.786 36.5945C152.627 36.753 152.548 37.0701 152.548 37.5457C153.023 37.8628 153.261 38.1402 153.261 38.378C153.341 38.5366 153.182 38.814 152.786 39.2104C152.627 39.0518 152.469 38.814 152.31 38.4969L151.002 39.8049C150.764 39.5671 150.408 39.4878 149.932 39.5671C149.536 39.6463 149.298 39.3689 149.219 38.7348C148.505 38.8933 147.871 39.1311 147.316 39.4482C146.761 39.686 146.286 40.0823 145.889 40.6372C145.81 40.7957 145.691 40.9543 145.533 41.1128C145.453 41.1921 145.334 41.311 145.176 41.4695C145.731 41.7866 146.167 41.7073 146.484 41.2317C146.642 41.1524 146.801 41.0335 146.959 40.875C147.197 40.7165 147.435 40.5976 147.673 40.5183C147.911 40.9146 147.831 41.1128 147.435 41.1128C146.959 41.1921 146.801 41.5488 146.959 42.1829ZM154.569 39.8049H155.283C155.124 39.7256 155.045 39.6463 155.045 39.5671C154.966 39.6463 154.807 39.686 154.569 39.686C154.569 39.686 154.569 39.7256 154.569 39.8049ZM147.673 32.0762C148.069 31.5213 148.307 31.2439 148.386 31.2439C148.545 31.1646 148.822 31.2439 149.219 31.4817C148.981 31.561 148.743 31.6799 148.505 31.8384C148.267 31.9177 147.99 31.9969 147.673 32.0762Z" fill="#014130"/>
</g>
<defs>
<clipPath id="clip0_305_5187">
<rect width="195" height="161.707" fill="white"/>
</clipPath>
</defs>
</svg>
